<?xml version="1.0" encoding="UTF-8"?>
<!DOCTYPE svg PUBLIC "-//W3C//DTD SVG 1.1//EN" "http://www.w3.org/Graphics/SVG/1.1/DTD/svg11.dtd">
<!-- Creator: CorelDRAW 2017 -->
<svg xmlns="http://www.w3.org/2000/svg" xml:space="preserve" width="8.8981mm" height="10.109mm" version="1.1" style="shape-rendering:geometricPrecision; text-rendering:geometricPrecision; image-rendering:optimizeQuality; fill-rule:evenodd; clip-rule:evenodd"
viewBox="0 0 98.97 112.44"
 xmlns:xlink="http://www.w3.org/1999/xlink">
 <defs>
  <style type="text/css">
   <![CDATA[
    .fil0 {fill:#F59100}
   ]]>
  </style>
 </defs>
 <g id="Layer_x0020_1">
  <metadata id="CorelCorpID_0Corel-Layer"/>
  <path class="fil0" d="M20.92 104.32l29.25 7.84c4.37,1.17 8.9,-1.44 10.07,-5.81l0 0c1.17,-4.37 -1.45,-8.9 -5.81,-10.07l-29.25 -7.84c-4.37,-1.17 -8.9,1.44 -10.07,5.81l0 0c-1.17,4.37 1.44,8.9 5.81,10.06zm23.62 -88.16l29.25 7.84c4.37,1.17 8.89,-1.45 10.06,-5.81l0 -0c1.17,-4.37 -1.44,-8.89 -5.81,-10.06l-29.25 -7.84c-4.37,-1.17 -8.9,1.44 -10.07,5.81l0 0c-1.17,4.37 1.44,8.9 5.81,10.07zm-15.07 -2.25l58.5 15.67c4.37,1.17 6.98,5.7 5.81,10.07l0 0c-1.17,4.37 -5.7,6.98 -10.07,5.81l-58.5 -15.67c-4.37,-1.17 -6.98,-5.7 -5.81,-10.07l0 0c1.17,-4.37 5.7,-6.98 10.06,-5.81zm-18.47 68.94l58.5 15.67c4.37,1.17 8.9,-1.44 10.07,-5.81l0 -0c1.17,-4.37 -1.44,-8.9 -5.81,-10.07l-58.5 -15.67c-4.37,-1.17 -8.9,1.44 -10.07,5.81l0 0c-1.17,4.37 1.44,8.9 5.81,10.07zm4.16 -53.97l77.72 20.82c4.37,1.17 6.98,5.7 5.81,10.07l0 0c-1.17,4.37 -5.7,6.98 -10.06,5.81l-77.72 -20.82c-4.37,-1.17 -6.98,-5.7 -5.81,-10.07l0 0c1.17,-4.37 5.7,-6.98 10.06,-5.81zm-9.07 33.84l77.72 20.82c4.37,1.17 8.9,-1.44 10.07,-5.81l0 0c1.17,-4.37 -1.44,-8.9 -5.81,-10.07l-77.72 -20.82c-4.37,-1.17 -8.9,1.45 -10.07,5.81l0 0c-1.17,4.37 1.44,8.89 5.81,10.06z"/>
 </g>
</svg>
